# xmcd CD database file
#
# Track frame offsets:
#	150
#	21275
#	37210
#	64305
#	80875
#	97637
#	119222
#	130877
#	152415
#	165417
#	186862
#	204307
#
# Disc length: 2995 seconds
#
# Revision: 0
# Processed by: cddbd v1.5.2PL0 Copyright (c) Steve Scherf et al.
# Submitted via: CDex 1.51
#
DISCID=a20bb10c
DTITLE=Sampler - New Blues From Texas
DYEAR=1995
DGENRE=Blues
TTITLE0=Quick - Black Cat Bone
TTITLE1=Lowdown Brown - Hang A Left
TTITLE2=King Ivory - Can`t Help But To Love You
TTITLE3=Sideway Sumlin - The Freeze
TTITLE4=Mustard - Black Don`t Crack
TTITLE5=Peppermint Harris - I`m Doing Bad
TTITLE6=Wilfred Chavis - My Baby`s Gone
TTITLE7=Joey Long - Shove It Up Your Heart
TTITLE8=King Ivory - Look Good Woman
TTITLE9=Pete Mayes - What You Ain`t Doing
TTITLE10=Clarence Green - Note On The Taable Blues
TTITLE11=Pierre and The Zydeco Dots - Bon Ton Roulay
EXTD=YEAR: 1995
EXTT0=
EXTT1=
EXTT2=
EXTT3=
EXTT4=
EXTT5=
EXTT6=
EXTT7=
EXTT8=
EXTT9=
EXTT10=
EXTT11=
PLAYORDER=
